<?xml version="1.0" standalone="no"?><svg xmlns="http://www.w3.org/2000/svg" viewBox="0 0 1440 320"><path fill="#0099ff" fill-opacity="1" d="M0,96L12.6,128C25.3,160,51,224,76,245.3C101.1,267,126,245,152,202.7C176.8,160,202,96,227,85.3C252.6,75,278,117,303,117.3C328.4,117,354,75,379,74.7C404.2,75,429,117,455,138.7C480,160,505,160,531,149.3C555.8,139,581,117,606,112C631.6,107,657,117,682,112C707.4,107,733,85,758,117.3C783.2,149,808,235,834,245.3C858.9,256,884,192,909,144C934.7,96,960,64,985,96C1010.5,128,1036,224,1061,245.3C1086.3,267,1112,213,1137,186.7C1162.1,160,1187,160,1213,144C1237.9,128,1263,96,1288,69.3C1313.7,43,1339,21,1364,37.3C1389.5,53,1415,107,1427,133.3L1440,160L1440,320L1427.4,320C1414.7,320,1389,320,1364,320C1338.9,320,1314,320,1288,320C1263.2,320,1238,320,1213,320C1187.4,320,1162,320,1137,320C1111.6,320,1086,320,1061,320C1035.8,320,1011,320,985,320C960,320,935,320,909,320C884.2,320,859,320,834,320C808.4,320,783,320,758,320C732.6,320,707,320,682,320C656.8,320,632,320,606,320C581.1,320,556,320,531,320C505.3,320,480,320,455,320C429.5,320,404,320,379,320C353.7,320,328,320,303,320C277.9,320,253,320,227,320C202.1,320,177,320,152,320C126.3,320,101,320,76,320C50.5,320,25,320,13,320L0,320Z"></path></svg>