<?xml version="1.0" standalone="no"?><svg xmlns="http://www.w3.org/2000/svg" viewBox="0 0 1440 320"><path fill="#0099ff" fill-opacity="1" d="M0,32L21.8,58.7C43.6,85,87,139,131,165.3C174.5,192,218,192,262,181.3C305.5,171,349,149,393,138.7C436.4,128,480,128,524,133.3C567.3,139,611,149,655,170.7C698.2,192,742,224,785,240C829.1,256,873,256,916,250.7C960,245,1004,235,1047,218.7C1090.9,203,1135,181,1178,154.7C1221.8,128,1265,96,1309,101.3C1352.7,107,1396,149,1418,170.7L1440,192L1440,320L1418.2,320C1396.4,320,1353,320,1309,320C1265.5,320,1222,320,1178,320C1134.5,320,1091,320,1047,320C1003.6,320,960,320,916,320C872.7,320,829,320,785,320C741.8,320,698,320,655,320C610.9,320,567,320,524,320C480,320,436,320,393,320C349.1,320,305,320,262,320C218.2,320,175,320,131,320C87.3,320,44,320,22,320L0,320Z"></path></svg>